<?xml version="1.0" encoding="iso-8859-1"?>
<!-- Uploaded to: SVG Repo, www.svgrepo.com, Generator: SVG Repo Mixer Tools -->
<svg fill="#000000" height="800px" width="800px" version="1.1" id="Layer_1" xmlns="http://www.w3.org/2000/svg" xmlns:xlink="http://www.w3.org/1999/xlink" 
	 viewBox="0 0 472.615 472.615" xml:space="preserve">
<g>
	<g>
		<polygon points="472.615,384 472.615,324.894 0,324.894 0,384 147.692,384 147.692,433.231 108.308,433.231 108.308,452.923 
			364.308,452.923 364.308,433.231 324.923,433.231 324.923,384 		"/>
	</g>
</g>
<g>
	<g>
		<path d="M157.538,78.74c-5.428,0-9.846,4.413-9.846,9.846v29.538c0,5.432,4.418,9.846,9.846,9.846
			c5.428,0,9.846-4.414,9.846-9.846V88.586C167.385,83.153,162.967,78.74,157.538,78.74z"/>
	</g>
</g>
<g>
	<g>
		<path d="M236.308,206.74c-5.428,0-9.846,4.413-9.846,9.846v29.539c0,5.432,4.418,9.846,9.846,9.846
			c5.428,0,9.846-4.414,9.846-9.846v-29.539C246.154,211.153,241.736,206.74,236.308,206.74z"/>
	</g>
</g>
<g>
	<g>
		<path d="M374.154,206.74c-5.428,0-9.846,4.413-9.846,9.846v29.539c0,5.432,4.418,9.846,9.846,9.846
			c5.428,0,9.846-4.414,9.846-9.846v-29.539C384,211.153,379.582,206.74,374.154,206.74z"/>
	</g>
</g>
<g>
	<g>
		<path d="M0,19.692v285.509h472.615V19.692H0z M216.615,127.97h9.846V88.586h-9.846V68.894h9.846v-9.846h19.692v68.923H256v19.692
			h-39.385V127.97z M108.308,275.663H68.923V255.97h9.846v-39.385h-9.846v-19.692h9.846v-9.846h19.692v68.923h9.846V275.663z
			 M108.308,147.663H68.923V127.97h9.846V88.586h-9.846V68.894h9.846v-9.846h19.692v68.923h9.846V147.663z M177.231,275.663h-39.385
			V255.97h9.846v-39.385h-9.846v-19.692h9.846v-9.846h19.692v68.923h9.846V275.663z M187.077,118.124
			c0,16.289-13.25,29.539-29.538,29.539c-16.289,0-29.538-13.25-29.538-29.539V88.586c0-16.288,13.25-29.538,29.538-29.538
			c16.288,0,29.538,13.25,29.538,29.538V118.124z M265.846,246.124c0,16.288-13.25,29.538-29.538,29.538
			c-16.289,0-29.538-13.25-29.538-29.538v-29.539c0-16.288,13.25-29.538,29.538-29.538c16.288,0,29.538,13.25,29.538,29.538V246.124
			z M324.923,275.663h-39.385V255.97h9.846v-39.385h-9.846v-19.692h9.846v-9.846h19.692v68.923h9.846V275.663z M324.923,147.663
			h-39.385V127.97h9.846V88.586h-9.846V68.894h9.846v-9.846h19.692v68.923h9.846V147.663z M403.692,246.124
			c0,16.288-13.25,29.538-29.538,29.538c-16.289,0-29.539-13.25-29.539-29.538v-29.539c0-16.288,13.25-29.538,29.539-29.538
			c16.288,0,29.538,13.25,29.538,29.538V246.124z M403.692,118.124c0,16.289-13.25,29.539-29.538,29.539
			c-16.289,0-29.539-13.25-29.539-29.539V88.586c0-16.288,13.25-29.538,29.539-29.538c16.288,0,29.538,13.25,29.538,29.538V118.124z
			"/>
	</g>
</g>
<g>
	<g>
		<path d="M374.154,78.74c-5.428,0-9.846,4.413-9.846,9.846v29.538c0,5.432,4.418,9.846,9.846,9.846
			c5.428,0,9.846-4.414,9.846-9.846V88.586C384,83.153,379.582,78.74,374.154,78.74z"/>
	</g>
</g>
</svg>